# xmcd
#
# Track frame offsets: 
#        150
#        20385
#        35817
#        59280
#        73365
#        88810
#        128400
#        147615
#        175710
#        199757
#        225515
#        248430
#
# Disc length: 3475 seconds
#
# Revision: 0
# Processed by: cddbd v1.5.2PL0 Copyright (c) Steve Scherf et al.
# Submitted via: ExactAudioCopy v1.0b1
#
DISCID=a50d910c
DTITLE=Keenfish - Up To The Minute
DYEAR=1997
DGENRE=Blues
TTITLE0=House Of The Blues
TTITLE1=Up To The Minute
TTITLE2=Zephyr
TTITLE3=She's So Good To Me
TTITLE4=Mighty, Mighty Tall Lovin'
TTITLE5=Miranda - Phobia
TTITLE6=Plenty Of Time
TTITLE7=Barracuda Blues
TTITLE8=I'm Evil 2
TTITLE9=Lindly
TTITLE10=Tell Me What You Want
TTITLE11=Lay In The Shade
EXTD=
EXTT0=
EXTT1=
EXTT2=
EXTT3=
EXTT4=
EXTT5=
EXTT6=
EXTT7=
EXTT8=
EXTT9=
EXTT10=
EXTT11=
PLAYORDER=
